<svg xmlns="http://www.w3.org/2000/svg" viewBox="0 0 512 512">
  <rect width="512" height="512" rx="96" fill="#075E54"/>
  <path d="M256 120c-74.7 0-135.2 55.2-135.2 123.3 0 21.8 6.2 42.1 16.9 59.7L122 370l69.2-18.1c19.1 10.4 41 16.4 64.8 16.4 74.7 0 135.2-55.2 135.2-123.3S330.7 120 256 120z" fill="white"/>
  <path d="M310.5 280.8c-3.7-1.9-22-10.8-25.4-12-3.4-1.2-5.9-1.9-8.3 1.9-2.5 3.7-9.6 12-11.7 14.5-2.2 2.5-4.3 2.8-8 .9-3.7-1.9-15.6-5.7-29.7-18.3-11-9.8-18.4-21.8-20.5-25.5-2.2-3.7-.2-5.7 1.6-7.5 1.6-1.6 3.7-4.3 5.5-6.5 1.9-2.2 2.5-3.7 3.7-6.2 1.2-2.5.6-4.6-.3-6.5-.9-1.9-8.3-20.1-11.4-27.5-3-7.2-6.1-6.2-8.3-6.3-2.2-.1-4.6-.1-7.1-.1-2.5 0-6.5.9-9.9 4.6-3.4 3.7-12.9 12.6-12.9 30.8s13.2 35.7 15.1 38.2c1.9 2.5 26 39.6 63 55.5 8.8 3.8 15.7 6.1 21 7.8 8.8 2.8 16.9 2.4 23.2 1.5 7.1-1.1 22-9 25.1-17.6 3.1-8.7 3.1-16.1 2.2-17.6-.9-1.6-3.4-2.5-7.1-4.3z" fill="#075E54"/>
</svg>
